{
  "accessors": [
    {
      "bufferView": 2,
      "componentType": 5126,
      "count": 3182,
      "max": [0.2601366937160492, 0.6276515126228333, 1.6681474447250366],
      "min": [-0.2601366937160492, -1.1639599800109863, 0.0],
      "type": "VEC3"
    },
    {
      "bufferView": 2,
      "byteOffset": 38184,
      "componentType": 5126,
      "count": 3182,
      "max": [0.9997370839118958, 0.9999990463256836, 1.0],
      "min": [-0.9997371435165405, -0.9999999403953552, -1.0],
      "type": "VEC3"
    },
    {
      "bufferView": 1,
      "componentType": 5126,
      "count": 3182,
      "max": [0.9955387711524963, 0.9920550584793091],
      "min": [0.00927320122718811, 0.019350912421941757],
      "type": "VEC2"
    },
    {
      "bufferView": 0,
      "componentType": 5125,
      "count": 16326,
      "type": "SCALAR"
    }
  ],
  "asset": {
    "extras": {
      "author": "ScotchTapeWorm (https://sketchfab.com/scotchtapeworm)",
      "license": "CC-BY-4.0 (http://creativecommons.org/licenses/by/4.0/)",
      "source": "https://sketchfab.com/3d-models/horse-basemesh-free-download-1119c25a45714b489337b215e89a0c77",
      "title": "Horse Basemesh Free Download"
    },
    "generator": "Sketchfab-12.67.0",
    "version": "2.0"
  },
  "bufferViews": [
    {
      "buffer": 0,
      "byteLength": 65304,
      "name": "floatBufferViews",
      "target": 34963
    },
    {
      "buffer": 0,
      "byteLength": 25456,
      "byteOffset": 65304,
      "byteStride": 8,
      "name": "floatBufferViews",
      "target": 34962
    },
    {
      "buffer": 0,
      "byteLength": 76368,
      "byteOffset": 90760,
      "byteStride": 12,
      "name": "floatBufferViews",
      "target": 34962
    }
  ],
  "buffers": [
    {
      "byteLength": 167128,
      "uri": "scene.bin"
    }
  ],
  "materials": [
    {
      "doubleSided": true,
      "name": "Horse",
      "pbrMetallicRoughness": {
        "metallicFactor": 0.0,
        "roughnessFactor": 0.2
      }
    }
  ],
  "meshes": [
    {
      "name": "Retopology_Horse_0",
      "primitives": [
        {
          "attributes": {
            "NORMAL": 1,
            "POSITION": 0,
            "TEXCOORD_0": 2
          },
          "indices": 3,
          "material": 0,
          "mode": 4
        }
      ]
    }
  ],
  "nodes": [
    {
      "children": [1],
      "matrix": [
        1.0, 0.0, 0.0, 0.0, 0.0, 2.220446049250313e-16, -1.0, 0.0, 0.0, 1.0, 2.220446049250313e-16,
        0.0, 0.0, 0.0, 0.0, 1.0
      ],
      "name": "Sketchfab_model"
    },
    {
      "children": [2],
      "matrix": [1.0, 0.0, 0.0, 0.0, 0.0, 0.0, 1.0, 0.0, 0.0, -1.0, 0.0, 0.0, 0.0, 0.0, 0.0, 1.0],
      "name": "48e74a04c6ed4d53afc962fcaebc0cf1.fbx"
    },
    {
      "children": [3],
      "name": "RootNode"
    },
    {
      "children": [4],
      "matrix": [
        100.0, 0.0, 0.0, 0.0, 0.0, -1.629206793918314e-5, -99.99999999999868, 0.0, 0.0,
        99.99999999999868, -1.629206793918314e-5, 0.0, 0.0, 0.0, 0.0, 1.0
      ],
      "name": "Retopology"
    },
    {
      "mesh": 0,
      "name": "Retopology_Horse_0"
    }
  ],
  "scene": 0,
  "scenes": [
    {
      "name": "Sketchfab_Scene",
      "nodes": [0]
    }
  ]
}
