{
  "accessors": [
    {
      "bufferView": 2,
      "componentType": 5126,
      "count": 441,
      "max": [2.852410078048706, 2.2874701023101807, 1.4450199604034424],
      "min": [-2.556770086288452, -2.551340103149414, -0.012450000271201134],
      "type": "VEC3"
    },
    {
      "bufferView": 2,
      "byteOffset": 5292,
      "componentType": 5126,
      "count": 441,
      "max": [1.0, 1.0, 1.0],
      "min": [-0.9999707341194153, -1.0, -1.0],
      "type": "VEC3"
    },
    {
      "bufferView": 3,
      "componentType": 5126,
      "count": 441,
      "max": [1.0, 1.0, 1.0, 1.0],
      "min": [-1.0, -0.9999684691429138, -0.9999986290931702, 1.0],
      "type": "VEC4"
    },
    {
      "bufferView": 1,
      "componentType": 5126,
      "count": 441,
      "max": [0.9996799826622009, 0.9930899739265442],
      "min": [0.0021200000774115324, 0.0075599998235702515],
      "type": "VEC2"
    },
    {
      "bufferView": 1,
      "byteOffset": 3528,
      "componentType": 5126,
      "count": 441,
      "max": [0.9996799826622009, 0.9930899739265442],
      "min": [0.0021200000774115324, 0.0075599998235702515],
      "type": "VEC2"
    },
    {
      "bufferView": 1,
      "byteOffset": 7056,
      "componentType": 5126,
      "count": 441,
      "max": [0.9996799826622009, 0.9930899739265442],
      "min": [0.0021200000774115324, 0.0075599998235702515],
      "type": "VEC2"
    },
    {
      "bufferView": 1,
      "byteOffset": 10584,
      "componentType": 5126,
      "count": 441,
      "max": [0.9996799826622009, 0.9930899739265442],
      "min": [0.0021200000774115324, 0.0075599998235702515],
      "type": "VEC2"
    },
    {
      "bufferView": 0,
      "componentType": 5125,
      "count": 1146,
      "type": "SCALAR"
    },
    {
      "bufferView": 2,
      "byteOffset": 10584,
      "componentType": 5126,
      "count": 65,
      "max": [1.8157600164413452, -2.4201700687408447, 1.1077799797058105],
      "min": [0.8516200184822083, -2.524209976196289, 0.14365999400615692],
      "type": "VEC3"
    },
    {
      "bufferView": 2,
      "byteOffset": 11364,
      "componentType": 5126,
      "count": 65,
      "max": [0.3642127811908722, -0.9187532663345337, 0.38386741280555725],
      "min": [-0.3851213753223419, -1.0, -0.3672140836715698],
      "type": "VEC3"
    },
    {
      "bufferView": 3,
      "byteOffset": 7056,
      "componentType": 5126,
      "count": 65,
      "max": [0.2931869924068451, 0.36976873874664307, -0.8954116702079773, 1.0],
      "min": [0.15079140663146973, -0.3893102705478668, -0.9734922647476196, 1.0],
      "type": "VEC4"
    },
    {
      "bufferView": 1,
      "byteOffset": 14112,
      "componentType": 5126,
      "count": 65,
      "max": [0.9144700169563293, 0.6140599846839905],
      "min": [0.8375200033187866, 0.5336099863052368],
      "type": "VEC2"
    },
    {
      "bufferView": 1,
      "byteOffset": 14632,
      "componentType": 5126,
      "count": 65,
      "max": [0.9144700169563293, 0.6140599846839905],
      "min": [0.8375200033187866, 0.5336099863052368],
      "type": "VEC2"
    },
    {
      "bufferView": 1,
      "byteOffset": 15152,
      "componentType": 5126,
      "count": 65,
      "max": [0.9144700169563293, 0.6140599846839905],
      "min": [0.8375200033187866, 0.5336099863052368],
      "type": "VEC2"
    },
    {
      "bufferView": 0,
      "byteOffset": 4584,
      "componentType": 5125,
      "count": 336,
      "type": "SCALAR"
    },
    {
      "bufferView": 2,
      "byteOffset": 12144,
      "componentType": 5126,
      "count": 34,
      "max": [8.678759574890137, -2.494270086288452, 6.297039985656738],
      "min": [-2.654629945755005, -20.290630340576172, -5.1280198097229],
      "type": "VEC3"
    },
    {
      "bufferView": 2,
      "byteOffset": 12552,
      "componentType": 5126,
      "count": 34,
      "max": [0.9195148348808289, 0.36256876587867737, 0.9514532685279846],
      "min": [-0.962877094745636, 0.21058538556098938, -0.9447488188743591],
      "type": "VEC3"
    },
    {
      "bufferView": 1,
      "byteOffset": 15672,
      "componentType": 5126,
      "count": 34,
      "max": [3.451819896697998, 0.9950100183486938],
      "min": [-2.457479953765869, 0.009829999879002571],
      "type": "VEC2"
    },
    {
      "bufferView": 0,
      "byteOffset": 5928,
      "componentType": 5125,
      "count": 96,
      "type": "SCALAR"
    }
  ],
  "asset": {
    "extras": {
      "author": "3DHaupt (https://sketchfab.com/dennish2010)",
      "license": "CC-BY-4.0 (http://creativecommons.org/licenses/by/4.0/)",
      "source": "https://sketchfab.com/3d-models/old-beamer-low-poly-c1c504db02e445d3bcd421cdc4d063d2",
      "title": "Old Beamer (Low-Poly)"
    },
    "generator": "Sketchfab-12.64.0",
    "version": "2.0"
  },
  "bufferViews": [
    {
      "buffer": 0,
      "byteLength": 6312,
      "name": "floatBufferViews",
      "target": 34963
    },
    {
      "buffer": 0,
      "byteLength": 15944,
      "byteOffset": 6312,
      "byteStride": 8,
      "name": "floatBufferViews",
      "target": 34962
    },
    {
      "buffer": 0,
      "byteLength": 12960,
      "byteOffset": 22256,
      "byteStride": 12,
      "name": "floatBufferViews",
      "target": 34962
    },
    {
      "buffer": 0,
      "byteLength": 8096,
      "byteOffset": 35216,
      "byteStride": 16,
      "name": "floatBufferViews",
      "target": 34962
    }
  ],
  "buffers": [
    {
      "byteLength": 43312,
      "uri": "scene.bin"
    }
  ],
  "images": [
    {
      "uri": "textures/Material.047_baseColor.jpeg"
    },
    {
      "uri": "textures/Material.047_normal.jpeg"
    },
    {
      "uri": "textures/Material.054_baseColor.jpeg"
    },
    {
      "uri": "textures/Material.054_normal.png"
    },
    {
      "uri": "textures/Material.058_baseColor.png"
    },
    {
      "uri": "textures/Material.058_emissive.png"
    }
  ],
  "materials": [
    {
      "doubleSided": true,
      "name": "Material.047",
      "normalTexture": {
        "index": 1
      },
      "pbrMetallicRoughness": {
        "baseColorTexture": {
          "index": 0
        },
        "metallicFactor": 0.0,
        "roughnessFactor": 0.6
      }
    },
    {
      "doubleSided": true,
      "name": "Material.054",
      "normalTexture": {
        "index": 3
      },
      "pbrMetallicRoughness": {
        "baseColorTexture": {
          "index": 2
        },
        "metallicFactor": 0.0,
        "roughnessFactor": 0.6
      }
    },
    {
      "alphaMode": "BLEND",
      "doubleSided": true,
      "emissiveFactor": [0.21, 0.21, 0.21],
      "emissiveTexture": {
        "index": 5
      },
      "name": "Material.058",
      "pbrMetallicRoughness": {
        "baseColorFactor": [0.8000000119, 0.8000000119, 0.8000000119, 0.07],
        "baseColorTexture": {
          "index": 4
        },
        "metallicFactor": 0.0,
        "roughnessFactor": 0.6
      }
    }
  ],
  "meshes": [
    {
      "name": "Plane.547_0",
      "primitives": [
        {
          "attributes": {
            "NORMAL": 1,
            "POSITION": 0,
            "TANGENT": 2,
            "TEXCOORD_0": 3,
            "TEXCOORD_1": 4,
            "TEXCOORD_2": 5,
            "TEXCOORD_3": 6
          },
          "indices": 7,
          "material": 0,
          "mode": 4
        }
      ]
    },
    {
      "name": "Plane.547_1",
      "primitives": [
        {
          "attributes": {
            "NORMAL": 9,
            "POSITION": 8,
            "TANGENT": 10,
            "TEXCOORD_0": 11,
            "TEXCOORD_1": 12,
            "TEXCOORD_2": 13
          },
          "indices": 14,
          "material": 1,
          "mode": 4
        }
      ]
    },
    {
      "name": "Plane.547_2",
      "primitives": [
        {
          "attributes": {
            "NORMAL": 16,
            "POSITION": 15,
            "TEXCOORD_0": 17
          },
          "indices": 18,
          "material": 2,
          "mode": 4
        }
      ]
    }
  ],
  "nodes": [
    {
      "children": [1],
      "matrix": [
        1.0, 0.0, 0.0, 0.0, 0.0, 2.220446049250313e-16, -1.0, 0.0, 0.0, 1.0, 2.220446049250313e-16,
        0.0, 0.0, 0.0, 0.0, 1.0
      ],
      "name": "Sketchfab_model"
    },
    {
      "children": [2, 6, 8, 10],
      "name": "Root"
    },
    {
      "children": [3, 4, 5],
      "matrix": [
        0.13296000000000002, 0.0, 0.0, 0.0, 0.0, 0.13296000000000002, 0.0, 0.0, 0.0, 0.0,
        0.13296000000000002, 0.0, 0.0, 0.0, 0.0, 1.0
      ],
      "name": "Plane.547"
    },
    {
      "mesh": 0,
      "name": "Plane.547_0"
    },
    {
      "mesh": 1,
      "name": "Plane.547_1"
    },
    {
      "mesh": 2,
      "name": "Plane.547_2"
    },
    {
      "children": [7],
      "matrix": [
        1.0, 0.0, 0.0, 0.0, 0.0, 1.0, 0.0, 0.0, 0.0, 0.0, 1.0, 0.0, 0.22615000000000002, -1.18156,
        0.05654000000000001, 1.0
      ],
      "name": "Point"
    },
    {
      "name": "Point"
    },
    {
      "children": [9],
      "matrix": [
        1.0, 0.0, -0.0, 0.0, 0.0, 0.7550900000000001, 0.6556300000000002, 0.0, 0.0,
        -0.6556300000000002, 0.7550900000000001, 0.0, 0.22615000000000002, -1.26815,
        1.8174299999999999, 1.0
      ],
      "name": "Hemi"
    },
    {
      "name": "Hemi"
    },
    {
      "children": [11],
      "matrix": [
        1.0, 0.0, 0.0, 0.0, 0.0, 1.0, 0.0, 0.0, 0.0, 0.0, 1.0, 0.0, -0.4646, 0.9710799999999999,
        -0.55647, 1.0
      ],
      "name": "Point.001"
    },
    {
      "name": "Point.001"
    }
  ],
  "samplers": [
    {
      "magFilter": 9729,
      "minFilter": 9987,
      "wrapS": 10497,
      "wrapT": 10497
    }
  ],
  "scene": 0,
  "scenes": [
    {
      "name": "Sketchfab_Scene",
      "nodes": [0]
    }
  ],
  "textures": [
    {
      "sampler": 0,
      "source": 0
    },
    {
      "sampler": 0,
      "source": 1
    },
    {
      "sampler": 0,
      "source": 2
    },
    {
      "sampler": 0,
      "source": 3
    },
    {
      "sampler": 0,
      "source": 4
    },
    {
      "sampler": 0,
      "source": 5
    }
  ]
}
