<?xml version="1.0" encoding="UTF-8"?><svg id="Layer_2" xmlns="http://www.w3.org/2000/svg" viewBox="0 0 35.57 37.4"><defs><style>.cls-1{fill:#e8e8e8;}</style></defs><g id="Layer_1-2"><path class="cls-1" d="m7.06,3.7s.08-.06.12-.08c.73-.46,1.61-.79,2.47-.82.76-.03,1.52.17,2.19.53.07.04.13.07.2.11.09.05.17.09.29.16C12.97,1.49,14.3.17,16.52.01c2.23-.15,3.73.98,4.63,2.98,2.97-2.13,7.03-.23,7.36,3.36.28-.13.54-.27.82-.38,2.92-1.15,6.08.87,6.22,4,.05,1.05.02,2.11.02,3.16,0,3.62,0,7.23,0,10.85,0,1.71-.24,3.38-.87,4.98-.91,2.34-2.35,4.27-4.35,5.79-1.88,1.43-4,2.27-6.34,2.56-.44.05-.88.09-1.31.09-2.25-.02-4.5.06-6.74-.12-2.5-.2-4.61-1.39-6.39-3.15-2.3-2.28-4.6-4.57-6.87-6.87-3.08-3.12-3.58-7.73-1.22-11.4.35-.54.8-1.03,1.24-1.51.72-.76,1.46-1.48,2.21-2.21.17-.17.25-.34.25-.59-.01-1.12.02-2.24-.01-3.35-.03-.89.05-1.81.39-2.64.12-.3.28-.58.47-.85.28-.39.63-.73,1.03-1.01Zm-1.89,11.1c-.43.43-.79.78-1.14,1.14-.21.22-.4.45-.59.69-2.05,2.71-1.84,6.57.55,9.01,2.37,2.42,4.77,4.82,7.19,7.19,1.6,1.57,3.56,2.44,5.81,2.5,2.05.05,4.1.1,6.14-.02,3.64-.21,6.49-1.92,8.54-4.93,1.3-1.9,1.84-4.04,1.84-6.34,0-4.52,0-9.04,0-13.56,0-.21-.01-.43-.04-.64-.15-1.1-1.14-2.03-2.26-2.14-1.12-.11-2.25.59-2.57,1.68-.13.45-.13.94-.16,1.41-.04.65-.45,1.11-1.03,1.11-.57,0-1.01-.47-1.02-1.12,0-1.27,0-2.54,0-3.81,0-.21-.01-.43-.04-.64-.12-1.02-.89-1.88-1.92-2.13-.98-.23-2.04.18-2.62,1.01-.35.49-.47,1.04-.47,1.64,0,1.32,0,2.64,0,3.96,0,.46-.21.8-.62,1-.36.18-.71.11-1.03-.12-.32-.24-.41-.58-.41-.96,0-1.96,0-3.92,0-5.88,0-.23-.01-.45-.04-.68-.16-1.25-1.34-2.22-2.59-2.14-1.4.08-2.39,1.15-2.4,2.63-.01,1.97,0,3.94,0,5.92,0,.16,0,.33-.03.49-.08.42-.35.69-.75.81-.4.11-.78,0-1-.34-.15-.24-.25-.55-.26-.83-.04-1.2.03-2.41-.06-3.61-.12-1.55-1.74-2.57-3.23-2.1-1.1.34-1.76,1.29-1.76,2.57,0,3.35,0,6.71,0,10.06,0,.16,0,.33-.02.49-.07.44-.33.73-.75.85-.4.12-.77.01-1-.32-.15-.22-.26-.52-.27-.79-.03-.98-.01-1.95-.01-3.04Z"/></g></svg>