<?xml version="1.0" encoding="UTF-8"?><svg id="Layer_2" xmlns="http://www.w3.org/2000/svg" viewBox="0 0 34.95 37.92"><defs><style>.cls-1{fill:#e6e6e6;stroke:#e8e8e8;stroke-miterlimit:10;stroke-width:.25px;}</style></defs><g id="Layer_1-2"><path class="cls-1" d="m34.44,35.54l-8.08-8.08c3.17-2.88,5.18-7.02,5.18-11.63C31.54,7.17,24.49.12,15.83.12S.12,7.17.12,15.83s7.05,15.71,15.71,15.71c3.09,0,5.97-.91,8.41-2.46l8.33,8.33c.26.26.6.39.93.39s.68-.13.93-.39c.52-.52.52-1.35,0-1.87ZM2.77,15.83c0-7.2,5.86-13.06,13.06-13.06s13.07,5.86,13.07,13.06-5.86,13.07-13.07,13.07S2.77,23.03,2.77,15.83Z"/></g></svg>