{
  "accessors": [
    {
      "bufferView": 2,
      "componentType": 5126,
      "count": 2888,
      "max": [1.4472804069519043, 0.6565209627151489, 0.7775580286979675],
      "min": [-1.5674577951431274, -0.6565209627151489, 0.1374591886997223],
      "type": "VEC3"
    },
    {
      "bufferView": 2,
      "byteOffset": 34656,
      "componentType": 5126,
      "count": 2888,
      "max": [0.999859631061554, 1.0, 1.0],
      "min": [-0.9993515014648438, -1.0, -1.0],
      "type": "VEC3"
    },
    {
      "bufferView": 1,
      "componentType": 5126,
      "count": 2888,
      "max": [1.0152424573898315, 1.0],
      "min": [-0.15329599380493164, -0.13976474106311798],
      "type": "VEC2"
    },
    {
      "bufferView": 0,
      "componentType": 5125,
      "count": 4290,
      "type": "SCALAR"
    },
    {
      "bufferView": 2,
      "byteOffset": 69312,
      "componentType": 5126,
      "count": 858,
      "max": [1.4430383443832397, 0.6565209627151489, 0.6285036206245422],
      "min": [-1.5605469942092896, -0.6565209627151489, 0.10277329385280609],
      "type": "VEC3"
    },
    {
      "bufferView": 2,
      "byteOffset": 79608,
      "componentType": 5126,
      "count": 858,
      "max": [1.0, 1.0, 1.0],
      "min": [-1.0, -1.0, -1.0],
      "type": "VEC3"
    },
    {
      "bufferView": 1,
      "byteOffset": 23104,
      "componentType": 5126,
      "count": 858,
      "max": [1.0000001192092896, 0.6911882758140564],
      "min": [0.0, 0.0],
      "type": "VEC2"
    },
    {
      "bufferView": 0,
      "byteOffset": 17160,
      "componentType": 5125,
      "count": 1470,
      "type": "SCALAR"
    },
    {
      "bufferView": 2,
      "byteOffset": 89904,
      "componentType": 5126,
      "count": 88,
      "max": [0.5943825244903564, 0.5072629451751709, 0.7456565499305725],
      "min": [-0.7629491090774536, -0.5072629451751709, 0.5106107592582703],
      "type": "VEC3"
    },
    {
      "bufferView": 2,
      "byteOffset": 90960,
      "componentType": 5126,
      "count": 88,
      "max": [0.9998608827590942, 0.8697785139083862, 0.9423063397407532],
      "min": [-0.33823180198669434, -0.8697784543037415, 0.01668298989534378],
      "type": "VEC3"
    },
    {
      "bufferView": 1,
      "byteOffset": 29968,
      "componentType": 5126,
      "count": 88,
      "max": [1.0000001192092896, 0.5],
      "min": [0.0, 0.0],
      "type": "VEC2"
    },
    {
      "bufferView": 0,
      "byteOffset": 23040,
      "componentType": 5125,
      "count": 132,
      "type": "SCALAR"
    },
    {
      "bufferView": 2,
      "byteOffset": 92016,
      "componentType": 5126,
      "count": 24,
      "max": [1.3809221982955933, 0.5982142090797424, 0.5009975433349609],
      "min": [-1.5466362237930298, -0.5982142090797424, 0.23448064923286438],
      "type": "VEC3"
    },
    {
      "bufferView": 2,
      "byteOffset": 92304,
      "componentType": 5126,
      "count": 24,
      "max": [0.9940937161445618, 0.36163651943206787, -0.08289001137018204],
      "min": [-0.9676364660263062, -0.3616366684436798, -0.09831351786851883],
      "type": "VEC3"
    },
    {
      "bufferView": 1,
      "byteOffset": 30672,
      "componentType": 5126,
      "count": 24,
      "max": [0.9583338499069214, 0.2792413830757141],
      "min": [0.0, 0.022649472579360008],
      "type": "VEC2"
    },
    {
      "bufferView": 0,
      "byteOffset": 23568,
      "componentType": 5125,
      "count": 36,
      "type": "SCALAR"
    },
    {
      "bufferView": 2,
      "byteOffset": 92592,
      "componentType": 5126,
      "count": 8,
      "max": [-1.4885069131851196, 0.45278996229171753, 0.22829999029636383],
      "min": [-1.5445585250854492, -0.45278996229171753, 0.18608251214027405],
      "type": "VEC3"
    },
    {
      "bufferView": 2,
      "byteOffset": 92688,
      "componentType": 5126,
      "count": 8,
      "max": [-0.9619134664535522, 0.2595449686050415, -0.08578299731016159],
      "min": [-0.9619136452674866, -0.25954532623291016, -0.08578301966190338],
      "type": "VEC3"
    },
    {
      "bufferView": 1,
      "byteOffset": 30864,
      "componentType": 5126,
      "count": 8,
      "max": [0.0, 0.11285995692014694],
      "min": [0.0, 0.0016696355305612087],
      "type": "VEC2"
    },
    {
      "bufferView": 0,
      "byteOffset": 23712,
      "componentType": 5125,
      "count": 12,
      "type": "SCALAR"
    },
    {
      "bufferView": 2,
      "byteOffset": 92784,
      "componentType": 5126,
      "count": 16,
      "max": [1.3819655179977417, 0.6014124751091003, 0.438453733921051],
      "min": [1.3417646884918213, -0.6014124751091003, 0.38062968850135803],
      "type": "VEC3"
    },
    {
      "bufferView": 2,
      "byteOffset": 92976,
      "componentType": 5126,
      "count": 16,
      "max": [0.9880473017692566, 0.2138846069574356, -0.09113683551549911],
      "min": [0.9705705642700195, -0.2138853520154953, -0.11066179722547531],
      "type": "VEC3"
    },
    {
      "bufferView": 1,
      "byteOffset": 30928,
      "componentType": 5126,
      "count": 16,
      "max": [0.48223426938056946, 0.13941290974617004],
      "min": [0.0370156355202198, 0.009021900594234467],
      "type": "VEC2"
    },
    {
      "bufferView": 0,
      "byteOffset": 23760,
      "componentType": 5125,
      "count": 24,
      "type": "SCALAR"
    },
    {
      "bufferView": 2,
      "byteOffset": 93168,
      "componentType": 5126,
      "count": 1290,
      "max": [1.0081788301467896, 3.750058889389038, 1.0101722478866577],
      "min": [-1.008178949356079, -3.750058889389038, -1.002206802368164],
      "type": "VEC3"
    },
    {
      "bufferView": 2,
      "byteOffset": 108648,
      "componentType": 5126,
      "count": 1290,
      "max": [1.0, 1.0, 0.9921470880508423],
      "min": [-1.0, -1.0, -0.9510344862937927],
      "type": "VEC3"
    },
    {
      "bufferView": 1,
      "byteOffset": 31056,
      "componentType": 5126,
      "count": 1290,
      "max": [0.0, 0.0],
      "min": [0.0, 0.0],
      "type": "VEC2"
    },
    {
      "bufferView": 0,
      "byteOffset": 23856,
      "componentType": 5125,
      "count": 1980,
      "type": "SCALAR"
    },
    {
      "bufferView": 2,
      "byteOffset": 124128,
      "componentType": 5126,
      "count": 1592,
      "max": [1.3714245557785034, 3.7987773418426514, 1.3741360902786255],
      "min": [-1.371424674987793, -3.7987773418426514, -1.3633008003234863],
      "type": "VEC3"
    },
    {
      "bufferView": 2,
      "byteOffset": 143232,
      "componentType": 5126,
      "count": 1592,
      "max": [0.9980267882347107, 1.0, 1.0],
      "min": [-0.9980268478393555, -1.0, -0.9999983906745911],
      "type": "VEC3"
    },
    {
      "bufferView": 1,
      "byteOffset": 41376,
      "componentType": 5126,
      "count": 1592,
      "max": [0.0, 0.0],
      "min": [0.0, 0.0],
      "type": "VEC2"
    },
    {
      "bufferView": 0,
      "byteOffset": 31776,
      "componentType": 5125,
      "count": 2400,
      "type": "SCALAR"
    },
    {
      "bufferView": 2,
      "byteOffset": 162336,
      "componentType": 5126,
      "count": 1316,
      "max": [1.0473413467407227, 4.04428243637085, 1.1147030591964722],
      "min": [-1.0473414659500122, -4.04428243637085, -0.975846529006958],
      "type": "VEC3"
    },
    {
      "bufferView": 2,
      "byteOffset": 178128,
      "componentType": 5126,
      "count": 1316,
      "max": [1.0, 1.0, 0.9921471476554871],
      "min": [-1.0, -1.0, -0.9510356187820435],
      "type": "VEC3"
    },
    {
      "bufferView": 1,
      "byteOffset": 54112,
      "componentType": 5126,
      "count": 1316,
      "max": [0.0, 0.0],
      "min": [0.0, 0.0],
      "type": "VEC2"
    },
    {
      "bufferView": 0,
      "byteOffset": 41376,
      "componentType": 5125,
      "count": 1980,
      "type": "SCALAR"
    },
    {
      "bufferView": 2,
      "byteOffset": 193920,
      "componentType": 5126,
      "count": 1588,
      "max": [1.4246972799301147, 4.093000888824463, 1.492805004119873],
      "min": [-1.4246973991394043, -4.093000888824463, -1.3509671688079834],
      "type": "VEC3"
    },
    {
      "bufferView": 2,
      "byteOffset": 212976,
      "componentType": 5126,
      "count": 1588,
      "max": [0.9980267286300659, 1.0, 1.0],
      "min": [-0.9980267882347107, -1.0, -0.9999983310699463],
      "type": "VEC3"
    },
    {
      "bufferView": 1,
      "byteOffset": 64640,
      "componentType": 5126,
      "count": 1588,
      "max": [0.0, 0.0],
      "min": [0.0, 0.0],
      "type": "VEC2"
    },
    {
      "bufferView": 0,
      "byteOffset": 49296,
      "componentType": 5125,
      "count": 2400,
      "type": "SCALAR"
    }
  ],
  "asset": {
    "extras": {
      "author": "yokatann (https://sketchfab.com/yokatann)",
      "license": "CC-BY-4.0 (http://creativecommons.org/licenses/by/4.0/)",
      "source": "https://sketchfab.com/3d-models/low-poly-ferrari-testarossa-2dc9a378ce1947ef97079e0a8bffe5e4",
      "title": "Low Poly Ferrari Testarossa"
    },
    "generator": "Sketchfab-13.82.0",
    "version": "2.0"
  },
  "bufferViews": [
    {
      "buffer": 0,
      "byteLength": 58896,
      "name": "floatBufferViews",
      "target": 34963
    },
    {
      "buffer": 0,
      "byteLength": 77344,
      "byteOffset": 58896,
      "byteStride": 8,
      "name": "floatBufferViews",
      "target": 34962
    },
    {
      "buffer": 0,
      "byteLength": 232032,
      "byteOffset": 136240,
      "byteStride": 12,
      "name": "floatBufferViews",
      "target": 34962
    }
  ],
  "buffers": [
    {
      "byteLength": 368272,
      "uri": "scene.bin"
    }
  ],
  "materials": [
    {
      "doubleSided": true,
      "name": "Material.153",
      "pbrMetallicRoughness": {
        "baseColorFactor": [1.0, 0.0007354070000000041, 0.0, 1.0],
        "roughnessFactor": 0.7455230339749608
      }
    },
    {
      "doubleSided": true,
      "name": "Material.152",
      "pbrMetallicRoughness": {
        "baseColorFactor": [
          0.0013699005452204192, 0.0013699005452204192, 0.0013699005452204192, 1.0
        ],
        "metallicFactor": 0.0,
        "roughnessFactor": 0.9992756531556467
      }
    },
    {
      "doubleSided": true,
      "name": "Material.149",
      "pbrMetallicRoughness": {
        "baseColorFactor": [0.008959033215757944, 0.008959033215757944, 0.008959033215757944, 1.0],
        "roughnessFactor": 0.23961673026051133
      }
    },
    {
      "doubleSided": true,
      "emissiveFactor": [1.0, 0.21815952230455535, 0.0],
      "name": "Material.151",
      "pbrMetallicRoughness": {
        "baseColorFactor": [0.0, 0.0, 0.0, 1.0],
        "metallicFactor": 0.0,
        "roughnessFactor": 0.8040408205773457
      }
    },
    {
      "doubleSided": true,
      "emissiveFactor": [1.0, 1.0, 1.0],
      "name": "Material.148",
      "pbrMetallicRoughness": {
        "baseColorFactor": [0.0, 0.0, 0.0, 1.0],
        "metallicFactor": 0.0,
        "roughnessFactor": 0.8040408205773457
      }
    },
    {
      "doubleSided": true,
      "emissiveFactor": [1.0, 0.0, 0.0],
      "name": "Material.150",
      "pbrMetallicRoughness": {
        "baseColorFactor": [0.0, 0.0, 0.0, 1.0],
        "metallicFactor": 0.0,
        "roughnessFactor": 0.8040408205773457
      }
    },
    {
      "doubleSided": true,
      "name": "Material.147",
      "pbrMetallicRoughness": {
        "baseColorFactor": [0.81404, 0.81404, 0.81404, 1.0],
        "roughnessFactor": 0.23961673026051133
      }
    },
    {
      "doubleSided": true,
      "name": "Material.146",
      "pbrMetallicRoughness": {
        "baseColorFactor": [
          0.0023973259541357336, 0.0023973259541357336, 0.0023973259541357336, 1.0
        ],
        "metallicFactor": 0.0,
        "roughnessFactor": 0.7455230339749608
      }
    }
  ],
  "meshes": [
    {
      "name": "Plane.015_Material.153_0",
      "primitives": [
        {
          "attributes": {
            "NORMAL": 1,
            "POSITION": 0,
            "TEXCOORD_0": 2
          },
          "indices": 3,
          "material": 0,
          "mode": 4
        }
      ]
    },
    {
      "name": "Plane.015_Material.152_0",
      "primitives": [
        {
          "attributes": {
            "NORMAL": 5,
            "POSITION": 4,
            "TEXCOORD_0": 6
          },
          "indices": 7,
          "material": 1,
          "mode": 4
        }
      ]
    },
    {
      "name": "Plane.015_Material.149_0",
      "primitives": [
        {
          "attributes": {
            "NORMAL": 9,
            "POSITION": 8,
            "TEXCOORD_0": 10
          },
          "indices": 11,
          "material": 2,
          "mode": 4
        }
      ]
    },
    {
      "name": "Plane.015_Material.151_0",
      "primitives": [
        {
          "attributes": {
            "NORMAL": 13,
            "POSITION": 12,
            "TEXCOORD_0": 14
          },
          "indices": 15,
          "material": 3,
          "mode": 4
        }
      ]
    },
    {
      "name": "Plane.015_Material.148_0",
      "primitives": [
        {
          "attributes": {
            "NORMAL": 17,
            "POSITION": 16,
            "TEXCOORD_0": 18
          },
          "indices": 19,
          "material": 4,
          "mode": 4
        }
      ]
    },
    {
      "name": "Plane.015_Material.150_0",
      "primitives": [
        {
          "attributes": {
            "NORMAL": 21,
            "POSITION": 20,
            "TEXCOORD_0": 22
          },
          "indices": 23,
          "material": 5,
          "mode": 4
        }
      ]
    },
    {
      "name": "Circle.024_Material.147_0",
      "primitives": [
        {
          "attributes": {
            "NORMAL": 25,
            "POSITION": 24,
            "TEXCOORD_0": 26
          },
          "indices": 27,
          "material": 6,
          "mode": 4
        }
      ]
    },
    {
      "name": "Circle.024_Material.146_0",
      "primitives": [
        {
          "attributes": {
            "NORMAL": 29,
            "POSITION": 28,
            "TEXCOORD_0": 30
          },
          "indices": 31,
          "material": 7,
          "mode": 4
        }
      ]
    },
    {
      "name": "Circle.023_Material.147_0",
      "primitives": [
        {
          "attributes": {
            "NORMAL": 33,
            "POSITION": 32,
            "TEXCOORD_0": 34
          },
          "indices": 35,
          "material": 6,
          "mode": 4
        }
      ]
    },
    {
      "name": "Circle.023_Material.146_0",
      "primitives": [
        {
          "attributes": {
            "NORMAL": 37,
            "POSITION": 36,
            "TEXCOORD_0": 38
          },
          "indices": 39,
          "material": 7,
          "mode": 4
        }
      ]
    }
  ],
  "nodes": [
    {
      "children": [1],
      "matrix": [
        1.0, 0.0, 0.0, 0.0, 0.0, 2.220446049250313e-16, -1.0, 0.0, 0.0, 1.0, 2.220446049250313e-16,
        0.0, 0.0, 0.0, 0.0, 1.0
      ],
      "name": "Sketchfab_model"
    },
    {
      "children": [2],
      "matrix": [
        0.009999999776482582, 0.0, 0.0, 0.0, 0.0, 0.0, 0.009999999776482582, 0.0, 0.0,
        -0.009999999776482582, 0.0, 0.0, 0.0, 0.0, 0.0, 1.0
      ],
      "name": "81c63cf1605b44cc87e4a0b34cdd4c6c.fbx"
    },
    {
      "children": [3],
      "name": "RootNode"
    },
    {
      "children": [4, 11, 14],
      "matrix": [
        100.0, 0.0, 0.0, 0.0, 0.0, -1.629206793918314e-5, -99.99999999999868, 0.0, 0.0,
        99.99999999999868, -1.629206793918314e-5, 0.0, 0.0, 0.0, 0.0, 1.0
      ],
      "name": "Empty.007"
    },
    {
      "children": [5, 6, 7, 8, 9, 10],
      "matrix": [
        1.0, 0.0, 0.0, 0.0, 0.0, 1.0, -2.646977960169688e-23, 0.0, 0.0, 2.646977960169688e-23, 1.0,
        0.0, 0.0, 0.0, 0.0, 1.0
      ],
      "name": "Plane.015"
    },
    {
      "mesh": 0,
      "name": "Plane.015_Material.153_0"
    },
    {
      "mesh": 1,
      "name": "Plane.015_Material.152_0"
    },
    {
      "mesh": 2,
      "name": "Plane.015_Material.149_0"
    },
    {
      "mesh": 3,
      "name": "Plane.015_Material.151_0"
    },
    {
      "mesh": 4,
      "name": "Plane.015_Material.148_0"
    },
    {
      "mesh": 5,
      "name": "Plane.015_Material.150_0"
    },
    {
      "children": [12, 13],
      "matrix": [
        0.15961815416812897, 0.0, 0.0, 0.0, 0.0, 0.15961815416812897, -3.3087224502121096e-24, 0.0,
        0.0, 3.3087224502121096e-24, 0.15961815416812897, 0.0, -0.8258970379829407,
        -2.891298045426538e-8, 0.2151922732591629, 1.0
      ],
      "name": "Circle.024"
    },
    {
      "mesh": 6,
      "name": "Circle.024_Material.147_0"
    },
    {
      "mesh": 7,
      "name": "Circle.024_Material.146_0"
    },
    {
      "children": [15, 16],
      "matrix": [
        0.15961815416812897, 0.0, 0.0, 0.0, 0.0, 0.15961815416812897, -3.3087224502121096e-24, 0.0,
        0.0, 3.3087224502121096e-24, 0.15961815416812897, 0.0, 0.8711923956871033,
        -2.891298045426538e-8, 0.2151922732591629, 1.0
      ],
      "name": "Circle.023"
    },
    {
      "mesh": 8,
      "name": "Circle.023_Material.147_0"
    },
    {
      "mesh": 9,
      "name": "Circle.023_Material.146_0"
    }
  ],
  "scene": 0,
  "scenes": [
    {
      "name": "Sketchfab_Scene",
      "nodes": [0]
    }
  ]
}
